<svg xmlns="http://www.w3.org/2000/svg" id="Camada_1" data-name="Camada 1" version="1.1" viewBox="9.7 73.14 368.7 119.25">
  <defs>
    <style>
      .cls-1 {
        fill: #6b48ff;
      }

      .cls-1, .cls-2 {
        stroke-width: 0px;
      }

      .cls-2 {
        fill: #594153;
      }
    </style>
  </defs>
  <g>
    <path class="cls-2" d="M60.4,110.2c5.2-.5,8.9,3.9,7.7,8.9-.9,3.8-3.6,6.6-6.6,9.4-3.5,3.2-7,6.3-10.6,9.1-1.2.9-2.3,2-3.4,3.2-.5.6-1.2,1-2.1.8-14.4-4.2-30-11.7-31.8-28.6-1.4-13.1,3.1-23.3,13.6-30.7,3.6-2.5,7.7-4.5,12.1-5.9,15.8-4.9,34.5-4.7,49.2,3.5,9.6,5.4,15.9,14,17.6,25.1,0,.3-.1.5-.4.6l-17.9,3.8c-.4,0-.7,0-.8-.5-2.5-6.9-7.2-11.3-14-13.2-5.5-1.5-11.1-1.8-17-.8-12.6,2.1-21.3,11.4-22.7,24.4,0,.1,0,.2.2.3,0,0,0,0,0,0,1.4.1,2.8.5,4.2.6,4.5.3,9.5.7,15,1.3.2,0,.4-.1.5-.4,0,0,0,0,0,0,.6-6.2,3.5-11.3,8.8-14.3,1.5-.8,1.6-.7.4.5-.8.8-1.5,1.6-2.2,2.4-.4.5-.3.7.3.6Z"/>
    <path class="cls-1" d="M88.1,152.4h-23.2c-.5,0-1,.1-1.5.4-1.7.9-3.3,2.1-4.8,3.5-.2.2-.3.1-.4-.1,0-.1,0-.3,0-.4,1.8-2.7,4-5,6.6-7.1,3.2-2.5,6.4-5.1,9.6-7.9,2.6-2.2,5.3-4.9,8-8.1,2.2-2.5,3.6-5.4,4.4-8.6,0-.3.2-.4.5-.3,1.4.4,2.7.9,3.9,1.5,7,3.7,11.8,7.8,15.4,14.4,4,7.3,3.8,17.6,1.6,25.3-4.7,16.5-19.6,24.1-35.5,26.4-27,4-60-3.4-63-36.2,0-.3.1-.5.5-.6l28.4-4.5c0,0,.2,0,.2.1,0,0,0,0,0,.1-4.3,6.3-6.7,13.1-7.2,20.4,0,0,0,.1.1.1,0,0,0,0,0,0h56.3c.1,0,.2-.1.2-.2h0v-17.8c0-.3-.2-.4-.5-.4Z"/>
  </g>
  <g>
    <path class="cls-1" d="M128.9,156.5c-3-1.5-5.2-3.7-6.8-6.6-1.6-2.9-2.3-6.4-2.3-10.5v-4.9c0-4.3.7-7.9,2.2-10.9,1.5-3,3.6-5.3,6.5-6.9,2.8-1.6,6.3-2.4,10.3-2.4s7,.9,9.7,2.8c2.7,1.9,4.7,4.6,6.1,8.2,1.4,3.6,2.1,7.9,2.1,13v2.8h-29.6v-7.7h19.1v-1c-.4-2.5-1.2-4.4-2.5-5.8-1.3-1.4-2.9-2-5.1-2s-4.9.8-6.4,2.5c-1.5,1.6-2.3,4-2.3,7v5.5c0,2.9.8,5.2,2.5,6.8,1.7,1.6,4,2.4,6.9,2.4s3-.3,4.5-.8c1.5-.5,2.9-1.3,4.1-2.3l7.5,6.6c-2.2,2.1-4.8,3.6-7.6,4.8-2.8,1.1-5.6,1.7-8.5,1.7-4.2,0-7.7-.8-10.7-2.3Z"/>
    <path class="cls-1" d="M168.1,155.4c-2.3-2.2-3.4-5.6-3.4-10.1s1.3-7.5,3.9-9.6c2.6-2.1,6.4-3.2,11.6-3.2h10.8l.6,8.7h-11.4c-1.7,0-3,.3-3.9,1-.9.7-1.3,1.7-1.3,3.1s.5,2.5,1.6,3.1c1.1.7,2.7,1,4.9,1s5.3-.3,6.8-1c1.5-.7,2.2-1.8,2.2-3.2l.9,6.3c-.2,1.6-.9,2.9-2.1,4-1.3,1.1-2.8,1.9-4.7,2.4-1.9.5-3.9.8-6,.8-4.6,0-8.1-1.1-10.4-3.3ZM190.5,130.7c0-2-.7-3.5-2-4.6s-3.2-1.6-5.7-1.6-3.2.3-4.8.8c-1.6.5-3,1.3-4.2,2.2l-7.1-7c1.7-2,4-3.5,6.8-4.6,2.8-1.1,6-1.6,9.4-1.6s7,.6,9.7,1.9c2.7,1.3,4.7,3.1,6.1,5.5,1.4,2.4,2.1,5.3,2.1,8.7v27.8h-10.4v-27.4Z"/>
    <path class="cls-1" d="M212.1,114.9h12.2v43.2h-12.2v-43.2ZM234.4,125.7c-.8-.3-1.7-.4-2.8-.4-2.3,0-4.1.7-5.3,2.2-1.3,1.5-1.9,3.5-1.9,6.2l-.9-11.2c1.2-2.6,2.7-4.6,4.6-6,1.9-1.4,4-2.1,6.3-2.1s3.4.3,4.9.9c1.5.6,2.7,1.4,3.8,2.5l-6.7,9.3c-.6-.6-1.2-1-2-1.2Z"/>
    <path class="cls-1" d="M255.4,156.4c-2.9-1.6-5.2-3.9-6.7-6.8-1.5-3-2.3-6.6-2.3-10.8v-4.6c0-4.2.8-7.8,2.3-10.7,1.5-3,3.8-5.2,6.7-6.8,2.9-1.6,6.4-2.3,10.6-2.3s4.6.3,6.7.8c2.1.5,4,1.3,5.6,2.4,1.7,1,3.1,2.3,4.2,3.7l-7.4,7.2c-1.1-1-2.3-1.7-3.7-2.3-1.4-.5-2.9-.8-4.5-.8-2.9,0-5.1.8-6.7,2.3-1.6,1.5-2.4,3.7-2.4,6.5v4.6c0,2.9.8,5.1,2.4,6.7,1.6,1.6,3.8,2.4,6.7,2.4s3.1-.3,4.5-.9c1.4-.6,2.6-1.4,3.7-2.5l7.4,7.6c-1.1,1.4-2.5,2.7-4.2,3.7-1.7,1-3.5,1.8-5.6,2.3-2.1.5-4.3.8-6.7.8-4.1,0-7.6-.8-10.6-2.4Z"/>
    <path class="cls-1" d="M290.1,97.6h11.4v60.5h-11.4v-60.5ZM315.1,131.9c0-2.1-.6-3.7-1.8-4.9-1.2-1.2-2.9-1.7-5.1-1.7s-3.7.6-4.9,1.8c-1.2,1.2-1.7,2.8-1.7,5l-.9-9.6c1.3-2.7,2.9-4.8,4.7-6.1,1.8-1.4,4.1-2,6.8-2,4.6,0,8.1,1.5,10.6,4.6,2.5,3.1,3.7,7.4,3.7,13v26.2h-11.4v-26.2Z"/>
    <path class="cls-1" d="M334.1,151.7h6.4v6.4h-6.4v-6.4Z"/>
    <path class="cls-2" d="M345.7,124h6.4v6.4h-6.4v-6.4ZM345.7,133.8h6.4v24.3h-6.4v-24.3Z"/>
    <path class="cls-2" d="M362.2,157.2c-1.6-.8-2.8-2-3.6-3.6s-1.2-3.5-1.2-5.7v-4c0-2.2.4-4.1,1.2-5.7s2-2.8,3.6-3.6,3.5-1.2,5.7-1.2,4.1.4,5.7,1.2,2.8,2,3.6,3.6,1.2,3.5,1.2,5.7v4c0,2.2-.4,4.1-1.2,5.7s-2,2.8-3.6,3.6-3.5,1.2-5.7,1.2-4.1-.4-5.7-1.2ZM370.9,151.1c.7-.8,1.1-1.8,1.1-3.2v-4c0-1.4-.4-2.4-1.1-3.2s-1.7-1.1-3-1.1-2.3.4-3,1.1-1.1,1.8-1.1,3.2v4c0,1.4.4,2.4,1.1,3.2s1.7,1.1,3,1.1,2.3-.4,3-1.1Z"/>
  </g>
</svg>