<?xml version="1.0" encoding="UTF-8" standalone="no"?>
<!-- Generator: Adobe Illustrator 23.0.0, SVG Export Plug-In . SVG Version: 6.00 Build 0)  -->

<svg
   xmlns:dc="http://purl.org/dc/elements/1.1/"
   xmlns:cc="http://creativecommons.org/ns#"
   xmlns:rdf="http://www.w3.org/1999/02/22-rdf-syntax-ns#"
   xmlns:svg="http://www.w3.org/2000/svg"
   xmlns="http://www.w3.org/2000/svg"
   xmlns:sodipodi="http://sodipodi.sourceforge.net/DTD/sodipodi-0.dtd"
   xmlns:inkscape="http://www.inkscape.org/namespaces/inkscape"
   version="1.1"
   id="HboMax_white"
   x="0px"
   y="0px"
   viewBox="0 0 1000 171.36678"
   enable-background="new 0 0 1323 226.7"
   xml:space="preserve"
   sodipodi:docname="HBO Max inverted.svg"
   inkscape:version="0.92.4 (5da689c313, 2019-01-14)"
   width="1000"
   height="171.36678"><metadata
   id="metadata1440"><rdf:RDF><cc:Work
       rdf:about=""><dc:format>image/svg+xml</dc:format><dc:type
         rdf:resource="http://purl.org/dc/dcmitype/StillImage" /><dc:title>hbo-max_SM_new</dc:title></cc:Work></rdf:RDF></metadata><defs
   id="defs1438" /><sodipodi:namedview
   pagecolor="#ffffff"
   bordercolor="#666666"
   borderopacity="1"
   objecttolerance="10"
   gridtolerance="10"
   guidetolerance="10"
   inkscape:pageopacity="0"
   inkscape:pageshadow="2"
   inkscape:window-width="1920"
   inkscape:window-height="1017"
   id="namedview1436"
   showgrid="false"
   inkscape:zoom="0.21466364"
   inkscape:cx="661.5"
   inkscape:cy="113.35926"
   inkscape:window-x="-8"
   inkscape:window-y="-8"
   inkscape:window-maximized="1"
   inkscape:current-layer="HboMax_white"
   fit-margin-top="0"
   fit-margin-left="0"
   fit-margin-right="0"
   fit-margin-bottom="0" />
<title
   id="title1421">hbo-max_SM_new</title>





<g
   id="g1997"
   transform="matrix(0.7558579,0,0,0.7558579,0,0.00679012)"
   style="fill:#ffffff"><path
     id="path1423"
     d="m 100.2,3.8 h 60.1 V 225 H 100.2 V 139.2 H 61.4 V 225 H 0 V 3.8 h 61.4 v 82.5 h 38.8 z M 548,112.4 c 0.8,62 -48.8,112.9 -110.8,113.7 -43.6,0.6 -83.6,-24.2 -102.6,-63.4 -2.2,35 -31.2,62.3 -66.3,62.3 H 172.7 V 3.8 h 102.6 c 32,2.6 57.2,28.2 59.3,60.2 26.6,-56 93.5,-79.7 149.4,-53.1 39.2,18.7 64.1,58.2 64,101.5 z m -271.2,42.2 c 0.6,-9.3 -6.1,-17.4 -15.3,-18.6 h -30.7 v 37.4 h 30.7 c 9.2,-1.2 15.9,-9.4 15.3,-18.8 z m 0,-83.1 c 0.5,-9.2 -6.2,-17.2 -15.3,-18.4 h -30.7 v 37 h 30.7 c 9.1,-1.3 15.8,-9.4 15.3,-18.6 z m 47,27.4 c -6.3,6.6 -14.3,11.3 -23.2,13.5 9.3,3.1 17.4,9.1 23.2,17 -1.8,-10 -1.8,-20.4 0,-30.5 z m 168.8,13.5 c -0.2,-31 -25.4,-56 -56.5,-55.8 -31,0.2 -56,25.4 -55.8,56.5 0.2,30.9 25.3,55.8 56.1,55.8 31,0 56.1,-25.1 56.1,-56.1 0.1,-0.2 0.1,-0.3 0.1,-0.4 z M 436.4,68.3 c -24.5,-0.2 -44.5,19.5 -44.6,44 -0.2,24.5 19.5,44.5 44,44.6 24.5,0.2 44.5,-19.5 44.6,-44 0,-0.2 0,-0.3 0,-0.5 0.2,-24.2 -19.3,-44 -43.6,-44.2 -0.3,0 -0.5,0 -0.8,0 z"
     inkscape:connector-curvature="0"
     style="fill:#ffffff" /><path
     id="path1425"
     d="m 1307,8.1 c -1.7,0 -1.8,-0.9 -1.8,-1.4 0,-0.5 0,0 1.1,0 0.8,-0.1 1.6,0.4 1.8,1.2 l 2.1,-1.2 c -0.7,-1.5 -2.3,-2.5 -4,-2.5 -1.9,-0.1 -3.4,1.4 -3.5,3.2 0,0.1 0,0.1 0,0.2 0,2 1.5,2.8 3.1,3.2 1.6,0.4 2.3,0 2.3,1.4 0,1.4 0,0.9 -1.5,0.9 -1,0.1 -2,-0.6 -2.3,-1.5 l -2,1.2 c 0.6,1.8 2.4,2.9 4.3,2.8 2.3,0 4,-1.2 4,-3.4 0,-2.2 -1.9,-3.6 -3.6,-4.1 z"
     inkscape:connector-curvature="0"
     style="fill:#ffffff" /><polygon
     id="polygon1427"
     points="1312.1,3.8 1312.1,14.6 1314.6,14.6 1314.6,8.3 1317.5,12.9 1317.8,12.9 1320.5,8.3 1320.5,14.6 1323,14.6 1323,3.8 1320.5,3.8 1317.6,8.6 1314.6,3.8 "
     style="fill:#ffffff" /><g
     id="g1988"
     style="fill:#ffffff"><path
       d="m 860.8,82.7 v 138.1 c 0.2,1.9 -1.2,3.6 -3.1,3.8 H 838.4 C 827.2,224.4 818.1,215.3 818.1,204 V 82.7 c 0.4,-21.9 -17.1,-40 -39,-40.4 -1.1,0 -2.1,0 -3.2,0.1 -22.1,-1.1 -40.9,15.9 -42,38 0,0.8 -0.1,1.6 0,2.4 v 138.1 c 0.2,1.8 -1.1,3.3 -2.9,3.5 -0.1,0 -0.1,0 -0.2,0 h -19 C 701,223.8 692.4,215 692,204.1 V 82.7 c 0,-23.2 -18.8,-42 -42.1,-42 -23.2,0 -42,18.8 -42,42 v 139 c 0.1,1.8 -1.3,3.3 -3.1,3.4 -0.1,0 -0.1,0 -0.2,0 H 585.3 C 574.4,225 565.5,216.4 565,205.5 V 82.7 c -1.6,-43.8 32.6,-80.6 76.3,-82.2 2.6,-0.1 5.3,-0.1 7.9,0.1 23.7,-0.9 46.7,8.2 63.4,25 16.6,-16.9 39.5,-26 63.2,-25.2 43.6,-3.2 81.5,29.6 84.7,73.2 0.4,3.1 0.4,6.1 0.3,9.1 z"
       id="path1429"
       inkscape:connector-curvature="0"
       style="fill:#ffffff" /><path
       d="m 1296.3,222.3 c 0.5,0.8 0.3,1.8 -0.5,2.3 -0.3,0.2 -0.6,0.3 -0.9,0.3 H 1261 c -8.9,0.9 -17.5,-3.1 -22.4,-10.6 l -34.7,-50.9 c -2.3,-4.8 -6.8,-8.1 -12.1,-8.7 -5.3,0.7 -9.9,4 -12.3,8.7 l -34.5,50.9 c -5,7.4 -13.7,11.5 -22.6,10.6 h -33.7 c -1,0 -1.8,-0.9 -1.8,-1.9 0,-0.3 0.1,-0.6 0.2,-0.9 l 66.7,-98.3 c 3.9,-5.8 3.9,-13.4 0,-19.2 L 1087.2,6 c -0.5,-0.8 -0.3,-1.8 0.5,-2.3 0.3,-0.2 0.7,-0.3 1,-0.3 h 33.7 c 8.9,-1.1 17.6,3 22.6,10.4 l 34.5,51.1 c 2.3,4.8 7,8.1 12.3,8.6 5.2,-0.6 9.8,-3.8 12.1,-8.6 l 34.7,-51.1 c 4.9,-7.5 13.6,-11.5 22.4,-10.4 h 33.9 c 0.9,0 1.7,0.8 1.7,1.7 0,0.3 -0.1,0.6 -0.3,0.9 l -67.3,98.8 c -3.7,5.9 -3.7,13.3 0,19.2 z"
       id="path1431"
       inkscape:connector-curvature="0"
       style="fill:#ffffff" /><path
       d="m 1074,3.8 h -13.8 c -7.3,-0.1 -14,3.8 -17.6,10.1 l -5.1,8.6 C 1019.3,7.8 996.5,-0.1 973.1,0.1 911.7,0.1 869.7,44 869.7,113.3 c 0,69.3 42,113.4 102.9,113.4 22.1,0.3 43.6,-6.7 61.4,-19.8 0.8,10.5 9.7,18.5 20.3,18.1 h 19.3 c 1.8,0 3.4,-0.8 3.4,-2.8 V 7.5 c 0.1,-1.8 -1.2,-3.4 -3,-3.7 z M 972.6,184.5 c -35.3,0 -61.4,-26.2 -61.4,-71.2 0,-45 25.8,-71 61.4,-71 35.6,0 61.4,26.2 61.4,71 0,44.8 -26.1,71.2 -61.4,71.2 z"
       id="path1433"
       inkscape:connector-curvature="0"
       style="fill:#ffffff" /></g></g>
</svg>